<svg width="770" height="364" viewBox="0 0 770 364" fill="none" xmlns="http://www.w3.org/2000/svg">
<path d="M182.1 140.7C181.3 142.1 180.433 143.133 179.5 143.8C178.633 144.4 177.533 144.7 176.2 144.7C174.8 144.7 173.267 144.2 171.6 143.2C170 142.133 168.067 140.967 165.8 139.7C163.533 138.433 160.867 137.3 157.8 136.3C154.8 135.233 151.233 134.7 147.1 134.7C143.367 134.7 140.1 135.167 137.3 136.1C134.5 136.967 132.133 138.2 130.2 139.8C128.333 141.4 126.933 143.333 126 145.6C125.067 147.8 124.6 150.233 124.6 152.9C124.6 156.3 125.533 159.133 127.4 161.4C129.333 163.667 131.867 165.6 135 167.2C138.133 168.8 141.7 170.233 145.7 171.5C149.7 172.767 153.8 174.133 158 175.6C162.2 177 166.3 178.667 170.3 180.6C174.3 182.467 177.867 184.867 181 187.8C184.133 190.667 186.633 194.2 188.5 198.4C190.433 202.6 191.4 207.7 191.4 213.7C191.4 220.233 190.267 226.367 188 232.1C185.8 237.767 182.533 242.733 178.2 247C173.933 251.2 168.7 254.533 162.5 257C156.3 259.4 149.2 260.6 141.2 260.6C136.6 260.6 132.067 260.133 127.6 259.2C123.133 258.333 118.833 257.067 114.7 255.4C110.633 253.733 106.8 251.733 103.2 249.4C99.6 247.067 96.4 244.467 93.6 241.6L101.5 228.7C102.167 227.767 103.033 227 104.1 226.4C105.167 225.733 106.3 225.4 107.5 225.4C109.167 225.4 110.967 226.1 112.9 227.5C114.833 228.833 117.133 230.333 119.8 232C122.467 233.667 125.567 235.2 129.1 236.6C132.7 237.933 137 238.6 142 238.6C149.667 238.6 155.6 236.8 159.8 233.2C164 229.533 166.1 224.3 166.1 217.5C166.1 213.7 165.133 210.6 163.2 208.2C161.333 205.8 158.833 203.8 155.7 202.2C152.567 200.533 149 199.133 145 198C141 196.867 136.933 195.633 132.8 194.3C128.667 192.967 124.6 191.367 120.6 189.5C116.6 187.633 113.033 185.2 109.9 182.2C106.767 179.2 104.233 175.467 102.3 171C100.433 166.467 99.5 160.9 99.5 154.3C99.5 149.033 100.533 143.9 102.6 138.9C104.733 133.9 107.8 129.467 111.8 125.6C115.8 121.733 120.733 118.633 126.6 116.3C132.467 113.967 139.2 112.8 146.8 112.8C155.333 112.8 163.2 114.133 170.4 116.8C177.6 119.467 183.733 123.2 188.8 128L182.1 140.7ZM371.666 114.4V259H347.966V165.6C347.966 161.867 348.166 157.833 348.566 153.5L304.866 235.6C302.799 239.533 299.632 241.5 295.366 241.5H291.566C287.299 241.5 284.132 239.533 282.066 235.6L237.866 153.2C238.066 155.4 238.232 157.567 238.366 159.7C238.499 161.833 238.566 163.8 238.566 165.6V259H214.866V114.4H235.166C236.366 114.4 237.399 114.433 238.266 114.5C239.132 114.567 239.899 114.733 240.566 115C241.299 115.267 241.932 115.7 242.466 116.3C243.066 116.9 243.632 117.7 244.166 118.7L287.466 199C288.599 201.133 289.632 203.333 290.566 205.6C291.566 207.867 292.532 210.2 293.466 212.6C294.399 210.133 295.366 207.767 296.366 205.5C297.366 203.167 298.432 200.933 299.566 198.8L342.266 118.7C342.799 117.7 343.366 116.9 343.966 116.3C344.566 115.7 345.199 115.267 345.866 115C346.599 114.733 347.399 114.567 348.266 114.5C349.132 114.433 350.166 114.4 351.366 114.4H371.666ZM541.828 186.7C541.828 197.3 540.061 207.133 536.528 216.2C533.061 225.2 528.128 233 521.728 239.6C515.328 246.2 507.628 251.367 498.628 255.1C489.628 258.767 479.628 260.6 468.628 260.6C457.695 260.6 447.728 258.767 438.728 255.1C429.728 251.367 421.995 246.2 415.528 239.6C409.128 233 404.161 225.2 400.628 216.2C397.095 207.133 395.328 197.3 395.328 186.7C395.328 176.1 397.095 166.3 400.628 157.3C404.161 148.233 409.128 140.4 415.528 133.8C421.995 127.2 429.728 122.067 438.728 118.4C447.728 114.667 457.695 112.8 468.628 112.8C475.961 112.8 482.861 113.667 489.328 115.4C495.795 117.067 501.728 119.467 507.128 122.6C512.528 125.667 517.361 129.433 521.628 133.9C525.961 138.3 529.628 143.233 532.628 148.7C535.628 154.167 537.895 160.1 539.428 166.5C541.028 172.9 541.828 179.633 541.828 186.7ZM514.328 186.7C514.328 178.767 513.261 171.667 511.128 165.4C508.995 159.067 505.961 153.7 502.028 149.3C498.095 144.9 493.295 141.533 487.628 139.2C482.028 136.867 475.695 135.7 468.628 135.7C461.561 135.7 455.195 136.867 449.528 139.2C443.928 141.533 439.128 144.9 435.128 149.3C431.195 153.7 428.161 159.067 426.028 165.4C423.895 171.667 422.828 178.767 422.828 186.7C422.828 194.633 423.895 201.767 426.028 208.1C428.161 214.367 431.195 219.7 435.128 224.1C439.128 228.433 443.928 231.767 449.528 234.1C455.195 236.433 461.561 237.6 468.628 237.6C475.695 237.6 482.028 236.433 487.628 234.1C493.295 231.767 498.095 228.433 502.028 224.1C505.961 219.7 508.995 214.367 511.128 208.1C513.261 201.767 514.328 194.633 514.328 186.7ZM619.552 238C624.552 238 628.752 237.4 632.152 236.2C635.552 235 638.252 233.4 640.252 231.4C642.318 229.4 643.785 227.067 644.652 224.4C645.585 221.733 646.052 218.9 646.052 215.9C646.052 212.767 645.552 209.967 644.552 207.5C643.552 204.967 641.985 202.833 639.852 201.1C637.718 199.3 634.952 197.933 631.552 197C628.218 196.067 624.185 195.6 619.452 195.6H592.352V238H619.552ZM592.352 135.2V177H613.752C622.952 177 629.885 175.333 634.552 172C639.285 168.667 641.652 163.367 641.652 156.1C641.652 148.567 639.518 143.2 635.252 140C630.985 136.8 624.318 135.2 615.252 135.2H592.352ZM615.252 114.4C624.718 114.4 632.818 115.3 639.552 117.1C646.285 118.9 651.785 121.467 656.052 124.8C660.385 128.133 663.552 132.167 665.552 136.9C667.552 141.633 668.552 146.967 668.552 152.9C668.552 156.3 668.052 159.567 667.052 162.7C666.052 165.767 664.485 168.667 662.352 171.4C660.285 174.067 657.618 176.5 654.352 178.7C651.152 180.9 647.318 182.767 642.852 184.3C662.718 188.767 672.652 199.5 672.652 216.5C672.652 222.633 671.485 228.3 669.152 233.5C666.818 238.7 663.418 243.2 658.952 247C654.485 250.733 648.985 253.667 642.452 255.8C635.918 257.933 628.452 259 620.052 259H565.452V114.4H615.252Z" fill="#325994"/>
<line x1="590" y1="328" x2="718" y2="328" stroke="#325994" stroke-width="10"/>
<line x1="516" y1="38" x2="718" y2="38" stroke="#325994" stroke-width="10"/>
<line x1="52" y1="328" x2="180" y2="328" stroke="#325994" stroke-width="10"/>
<line x1="52" y1="38" x2="250" y2="38" stroke="#325994" stroke-width="10"/>
<line x1="57" y1="38" x2="57" y2="326" stroke="#325994" stroke-width="10"/>
<line x1="713" y1="38" x2="713" y2="326" stroke="#325994" stroke-width="10"/>
<path d="M234.828 310.8H220.876V350H212.268V310.8H198.316V303.728H234.828V310.8ZM267.667 325.744C269.289 325.744 270.697 325.541 271.891 325.136C273.107 324.731 274.099 324.176 274.867 323.472C275.657 322.747 276.243 321.893 276.627 320.912C277.011 319.931 277.203 318.853 277.203 317.68C277.203 315.333 276.425 313.531 274.867 312.272C273.331 311.013 270.974 310.384 267.795 310.384H262.291V325.744H267.667ZM289.811 350H282.035C280.563 350 279.497 349.424 278.835 348.272L269.107 333.456C268.745 332.901 268.339 332.507 267.891 332.272C267.465 332.037 266.825 331.92 265.971 331.92H262.291V350H253.683V303.728H267.795C270.931 303.728 273.619 304.059 275.859 304.72C278.121 305.36 279.966 306.267 281.395 307.44C282.846 308.613 283.913 310.021 284.595 311.664C285.278 313.285 285.619 315.077 285.619 317.04C285.619 318.597 285.385 320.069 284.915 321.456C284.467 322.843 283.806 324.101 282.931 325.232C282.078 326.363 281.011 327.355 279.731 328.208C278.473 329.061 277.033 329.733 275.411 330.224C275.966 330.544 276.478 330.928 276.947 331.376C277.417 331.803 277.843 332.315 278.227 332.912L289.811 350ZM332.056 332.528L326.424 317.136C326.147 316.453 325.859 315.643 325.56 314.704C325.262 313.765 324.963 312.752 324.664 311.664C324.387 312.752 324.099 313.776 323.8 314.736C323.502 315.675 323.214 316.496 322.936 317.2L317.336 332.528H332.056ZM347.256 350H340.6C339.854 350 339.246 349.819 338.776 349.456C338.307 349.072 337.955 348.603 337.72 348.048L334.264 338.608H315.096L311.64 348.048C311.47 348.539 311.139 348.987 310.648 349.392C310.158 349.797 309.55 350 308.824 350H302.104L320.312 303.728H329.08L347.256 350ZM395.247 339.088C395.716 339.088 396.132 339.269 396.495 339.632L399.887 343.312C398.009 345.637 395.695 347.419 392.943 348.656C390.212 349.893 386.927 350.512 383.087 350.512C379.652 350.512 376.559 349.925 373.807 348.752C371.076 347.579 368.74 345.947 366.799 343.856C364.857 341.765 363.364 339.269 362.319 336.368C361.295 333.467 360.783 330.299 360.783 326.864C360.783 323.387 361.337 320.208 362.447 317.328C363.556 314.427 365.113 311.931 367.119 309.84C369.145 307.749 371.556 306.128 374.351 304.976C377.145 303.803 380.239 303.216 383.631 303.216C387.001 303.216 389.988 303.771 392.591 304.88C395.215 305.989 397.444 307.44 399.279 309.232L396.399 313.232C396.228 313.488 396.004 313.712 395.727 313.904C395.471 314.096 395.108 314.192 394.639 314.192C394.319 314.192 393.988 314.107 393.647 313.936C393.305 313.744 392.932 313.52 392.527 313.264C392.121 312.987 391.652 312.688 391.119 312.368C390.585 312.048 389.967 311.76 389.263 311.504C388.559 311.227 387.737 311.003 386.799 310.832C385.881 310.64 384.815 310.544 383.599 310.544C381.529 310.544 379.631 310.917 377.903 311.664C376.196 312.389 374.724 313.456 373.487 314.864C372.249 316.251 371.289 317.957 370.607 319.984C369.924 321.989 369.583 324.283 369.583 326.864C369.583 329.467 369.945 331.781 370.671 333.808C371.417 335.835 372.42 337.541 373.679 338.928C374.937 340.315 376.42 341.381 378.127 342.128C379.833 342.853 381.668 343.216 383.631 343.216C384.804 343.216 385.86 343.152 386.799 343.024C387.759 342.896 388.633 342.693 389.423 342.416C390.233 342.139 390.991 341.787 391.695 341.36C392.42 340.912 393.135 340.368 393.839 339.728C394.052 339.536 394.276 339.387 394.511 339.28C394.745 339.152 394.991 339.088 395.247 339.088ZM427.191 323.12H429.207C430.018 323.12 430.69 323.013 431.223 322.8C431.757 322.565 432.215 322.203 432.599 321.712L445.367 305.552C445.901 304.869 446.455 304.4 447.031 304.144C447.629 303.867 448.375 303.728 449.271 303.728H456.695L441.111 322.96C440.194 324.133 439.245 324.965 438.263 325.456C438.967 325.712 439.597 326.075 440.151 326.544C440.727 326.992 441.271 327.589 441.783 328.336L457.847 350H450.263C449.239 350 448.471 349.861 447.959 349.584C447.469 349.285 447.053 348.859 446.711 348.304L433.623 331.216C433.218 330.64 432.749 330.235 432.215 330C431.682 329.765 430.914 329.648 429.911 329.648H427.191V350H418.583V303.728H427.191V323.12ZM483.898 310.576V323.408H500.09V330.032H483.898V343.12H504.442V350H475.258V303.728H504.442V310.576H483.898ZM538.855 325.744C540.476 325.744 541.884 325.541 543.079 325.136C544.295 324.731 545.287 324.176 546.055 323.472C546.844 322.747 547.431 321.893 547.815 320.912C548.199 319.931 548.391 318.853 548.391 317.68C548.391 315.333 547.612 313.531 546.055 312.272C544.519 311.013 542.161 310.384 538.983 310.384H533.479V325.744H538.855ZM560.999 350H553.223C551.751 350 550.684 349.424 550.023 348.272L540.295 333.456C539.932 332.901 539.527 332.507 539.079 332.272C538.652 332.037 538.012 331.92 537.159 331.92H533.479V350H524.871V303.728H538.983C542.119 303.728 544.807 304.059 547.047 304.72C549.308 305.36 551.153 306.267 552.583 307.44C554.033 308.613 555.1 310.021 555.783 311.664C556.465 313.285 556.807 315.077 556.807 317.04C556.807 318.597 556.572 320.069 556.103 321.456C555.655 322.843 554.993 324.101 554.119 325.232C553.265 326.363 552.199 327.355 550.919 328.208C549.66 329.061 548.22 329.733 546.599 330.224C547.153 330.544 547.665 330.928 548.135 331.376C548.604 331.803 549.031 332.315 549.415 332.912L560.999 350Z" fill="#209ED4"/>
<path d="M326.447 16.728V63H318.863V33.112C318.863 31.9173 318.927 30.6267 319.055 29.24L305.071 55.512C304.409 56.7707 303.396 57.4 302.031 57.4H300.815C299.449 57.4 298.436 56.7707 297.775 55.512L283.631 29.144C283.695 29.848 283.748 30.5413 283.791 31.224C283.833 31.9067 283.855 32.536 283.855 33.112V63H276.271V16.728H282.767C283.151 16.728 283.481 16.7387 283.759 16.76C284.036 16.7813 284.281 16.8347 284.495 16.92C284.729 17.0053 284.932 17.144 285.103 17.336C285.295 17.528 285.476 17.784 285.647 18.104L299.503 43.8C299.865 44.4827 300.196 45.1867 300.495 45.912C300.815 46.6373 301.124 47.384 301.423 48.152C301.721 47.3627 302.031 46.6053 302.351 45.88C302.671 45.1333 303.012 44.4187 303.375 43.736L317.039 18.104C317.209 17.784 317.391 17.528 317.583 17.336C317.775 17.144 317.977 17.0053 318.191 16.92C318.425 16.8347 318.681 16.7813 318.959 16.76C319.236 16.7387 319.567 16.728 319.951 16.728H326.447ZM381.347 52.088C381.816 52.088 382.232 52.2693 382.595 52.632L385.987 56.312C384.109 58.6373 381.795 60.4187 379.043 61.656C376.312 62.8933 373.027 63.512 369.187 63.512C365.752 63.512 362.659 62.9253 359.907 61.752C357.176 60.5787 354.84 58.9467 352.899 56.856C350.957 54.7653 349.464 52.2693 348.419 49.368C347.395 46.4667 346.883 43.2987 346.883 39.864C346.883 36.3867 347.437 33.208 348.547 30.328C349.656 27.4267 351.213 24.9307 353.219 22.84C355.245 20.7493 357.656 19.128 360.451 17.976C363.245 16.8027 366.339 16.216 369.731 16.216C373.101 16.216 376.088 16.7707 378.691 17.88C381.315 18.9893 383.544 20.44 385.379 22.232L382.499 26.232C382.328 26.488 382.104 26.712 381.827 26.904C381.571 27.096 381.208 27.192 380.739 27.192C380.419 27.192 380.088 27.1067 379.747 26.936C379.405 26.744 379.032 26.52 378.627 26.264C378.221 25.9867 377.752 25.688 377.219 25.368C376.685 25.048 376.067 24.76 375.363 24.504C374.659 24.2267 373.837 24.0027 372.899 23.832C371.981 23.64 370.915 23.544 369.699 23.544C367.629 23.544 365.731 23.9173 364.003 24.664C362.296 25.3893 360.824 26.456 359.587 27.864C358.349 29.2507 357.389 30.9573 356.707 32.984C356.024 34.9893 355.683 37.2827 355.683 39.864C355.683 42.4667 356.045 44.7813 356.771 46.808C357.517 48.8347 358.52 50.5413 359.779 51.928C361.037 53.3147 362.52 54.3813 364.227 55.128C365.933 55.8533 367.768 56.216 369.731 56.216C370.904 56.216 371.96 56.152 372.899 56.024C373.859 55.896 374.733 55.6933 375.523 55.416C376.333 55.1387 377.091 54.7867 377.795 54.36C378.52 53.912 379.235 53.368 379.939 52.728C380.152 52.536 380.376 52.3867 380.611 52.28C380.845 52.152 381.091 52.088 381.347 52.088ZM419.723 39.992C421.302 39.992 422.678 39.8 423.851 39.416C425.025 39.0107 425.995 38.4453 426.763 37.72C427.553 36.9733 428.139 36.0773 428.523 35.032C428.907 33.9653 429.099 32.7813 429.099 31.48C429.099 30.2427 428.907 29.1227 428.523 28.12C428.139 27.1173 427.563 26.264 426.795 25.56C426.027 24.856 425.057 24.3227 423.883 23.96C422.71 23.576 421.323 23.384 419.723 23.384H413.291V39.992H419.723ZM419.723 16.728C422.817 16.728 425.494 17.0907 427.755 17.816C430.017 18.5413 431.883 19.5547 433.355 20.856C434.827 22.1573 435.915 23.7147 436.619 25.528C437.345 27.3413 437.707 29.3253 437.707 31.48C437.707 33.72 437.334 35.7787 436.587 37.656C435.841 39.512 434.721 41.112 433.227 42.456C431.734 43.8 429.857 44.8453 427.595 45.592C425.355 46.3387 422.731 46.712 419.723 46.712H413.291V63H404.683V16.728H419.723ZM481.748 25.144C481.492 25.592 481.215 25.9227 480.916 26.136C480.639 26.328 480.287 26.424 479.86 26.424C479.412 26.424 478.922 26.264 478.388 25.944C477.876 25.6027 477.258 25.2293 476.532 24.824C475.807 24.4187 474.954 24.056 473.972 23.736C473.012 23.3947 471.871 23.224 470.548 23.224C469.354 23.224 468.308 23.3733 467.412 23.672C466.516 23.9493 465.759 24.344 465.14 24.856C464.543 25.368 464.095 25.9867 463.796 26.712C463.498 27.416 463.348 28.1947 463.348 29.048C463.348 30.136 463.647 31.0427 464.244 31.768C464.863 32.4933 465.674 33.112 466.676 33.624C467.679 34.136 468.82 34.5947 470.1 35C471.38 35.4053 472.692 35.8427 474.036 36.312C475.38 36.76 476.692 37.2933 477.972 37.912C479.252 38.5093 480.394 39.2773 481.396 40.216C482.399 41.1333 483.199 42.264 483.796 43.608C484.415 44.952 484.724 46.584 484.724 48.504C484.724 50.5947 484.362 52.5573 483.636 54.392C482.932 56.2053 481.887 57.7947 480.5 59.16C479.135 60.504 477.46 61.5707 475.476 62.36C473.492 63.128 471.22 63.512 468.66 63.512C467.188 63.512 465.738 63.3627 464.308 63.064C462.879 62.7867 461.503 62.3813 460.18 61.848C458.879 61.3147 457.652 60.6747 456.5 59.928C455.348 59.1813 454.324 58.3493 453.428 57.432L455.956 53.304C456.17 53.0053 456.447 52.76 456.788 52.568C457.13 52.3547 457.492 52.248 457.876 52.248C458.41 52.248 458.986 52.472 459.604 52.92C460.223 53.3467 460.959 53.8267 461.812 54.36C462.666 54.8933 463.658 55.384 464.788 55.832C465.94 56.2587 467.316 56.472 468.916 56.472C471.37 56.472 473.268 55.896 474.612 54.744C475.956 53.5707 476.628 51.896 476.628 49.72C476.628 48.504 476.319 47.512 475.7 46.744C475.103 45.976 474.303 45.336 473.3 44.824C472.298 44.2907 471.156 43.8427 469.876 43.48C468.596 43.1173 467.295 42.7227 465.972 42.296C464.65 41.8693 463.348 41.3573 462.068 40.76C460.788 40.1627 459.647 39.384 458.644 38.424C457.642 37.464 456.831 36.2693 456.212 34.84C455.615 33.3893 455.316 31.608 455.316 29.496C455.316 27.8107 455.647 26.168 456.308 24.568C456.991 22.968 457.972 21.5493 459.252 20.312C460.532 19.0747 462.111 18.0827 463.988 17.336C465.866 16.5893 468.02 16.216 470.452 16.216C473.183 16.216 475.7 16.6427 478.004 17.496C480.308 18.3493 482.271 19.544 483.892 21.08L481.748 25.144Z" fill="#209ED4"/>
</svg>
