<svg width="770" height="364" viewBox="0 0 770 364" fill="none" xmlns="http://www.w3.org/2000/svg">
<path d="M178.1 141.7C177.3 143.1 176.433 144.133 175.5 144.8C174.633 145.4 173.533 145.7 172.2 145.7C170.8 145.7 169.267 145.2 167.6 144.2C166 143.133 164.067 141.967 161.8 140.7C159.533 139.433 156.867 138.3 153.8 137.3C150.8 136.233 147.233 135.7 143.1 135.7C139.367 135.7 136.1 136.167 133.3 137.1C130.5 137.967 128.133 139.2 126.2 140.8C124.333 142.4 122.933 144.333 122 146.6C121.067 148.8 120.6 151.233 120.6 153.9C120.6 157.3 121.533 160.133 123.4 162.4C125.333 164.667 127.867 166.6 131 168.2C134.133 169.8 137.7 171.233 141.7 172.5C145.7 173.767 149.8 175.133 154 176.6C158.2 178 162.3 179.667 166.3 181.6C170.3 183.467 173.867 185.867 177 188.8C180.133 191.667 182.633 195.2 184.5 199.4C186.433 203.6 187.4 208.7 187.4 214.7C187.4 221.233 186.267 227.367 184 233.1C181.8 238.767 178.533 243.733 174.2 248C169.933 252.2 164.7 255.533 158.5 258C152.3 260.4 145.2 261.6 137.2 261.6C132.6 261.6 128.067 261.133 123.6 260.2C119.133 259.333 114.833 258.067 110.7 256.4C106.633 254.733 102.8 252.733 99.2 250.4C95.6 248.067 92.4 245.467 89.6 242.6L97.5 229.7C98.1667 228.767 99.0333 228 100.1 227.4C101.167 226.733 102.3 226.4 103.5 226.4C105.167 226.4 106.967 227.1 108.9 228.5C110.833 229.833 113.133 231.333 115.8 233C118.467 234.667 121.567 236.2 125.1 237.6C128.7 238.933 133 239.6 138 239.6C145.667 239.6 151.6 237.8 155.8 234.2C160 230.533 162.1 225.3 162.1 218.5C162.1 214.7 161.133 211.6 159.2 209.2C157.333 206.8 154.833 204.8 151.7 203.2C148.567 201.533 145 200.133 141 199C137 197.867 132.933 196.633 128.8 195.3C124.667 193.967 120.6 192.367 116.6 190.5C112.6 188.633 109.033 186.2 105.9 183.2C102.767 180.2 100.233 176.467 98.3 172C96.4333 167.467 95.5 161.9 95.5 155.3C95.5 150.033 96.5333 144.9 98.6 139.9C100.733 134.9 103.8 130.467 107.8 126.6C111.8 122.733 116.733 119.633 122.6 117.3C128.467 114.967 135.2 113.8 142.8 113.8C151.333 113.8 159.2 115.133 166.4 117.8C173.6 120.467 179.733 124.2 184.8 129L178.1 141.7ZM367.666 115.4V260H343.966V166.6C343.966 162.867 344.166 158.833 344.566 154.5L300.866 236.6C298.799 240.533 295.632 242.5 291.366 242.5H287.566C283.299 242.5 280.132 240.533 278.066 236.6L233.866 154.2C234.066 156.4 234.232 158.567 234.366 160.7C234.499 162.833 234.566 164.8 234.566 166.6V260H210.866V115.4H231.166C232.366 115.4 233.399 115.433 234.266 115.5C235.132 115.567 235.899 115.733 236.566 116C237.299 116.267 237.932 116.7 238.466 117.3C239.066 117.9 239.632 118.7 240.166 119.7L283.466 200C284.599 202.133 285.632 204.333 286.566 206.6C287.566 208.867 288.532 211.2 289.466 213.6C290.399 211.133 291.366 208.767 292.366 206.5C293.366 204.167 294.432 201.933 295.566 199.8L338.266 119.7C338.799 118.7 339.366 117.9 339.966 117.3C340.566 116.7 341.199 116.267 341.866 116C342.599 115.733 343.399 115.567 344.266 115.5C345.132 115.433 346.166 115.4 347.366 115.4H367.666ZM537.828 187.7C537.828 198.3 536.061 208.133 532.528 217.2C529.061 226.2 524.128 234 517.728 240.6C511.328 247.2 503.628 252.367 494.628 256.1C485.628 259.767 475.628 261.6 464.628 261.6C453.695 261.6 443.728 259.767 434.728 256.1C425.728 252.367 417.995 247.2 411.528 240.6C405.128 234 400.161 226.2 396.628 217.2C393.095 208.133 391.328 198.3 391.328 187.7C391.328 177.1 393.095 167.3 396.628 158.3C400.161 149.233 405.128 141.4 411.528 134.8C417.995 128.2 425.728 123.067 434.728 119.4C443.728 115.667 453.695 113.8 464.628 113.8C471.961 113.8 478.861 114.667 485.328 116.4C491.795 118.067 497.728 120.467 503.128 123.6C508.528 126.667 513.361 130.433 517.628 134.9C521.961 139.3 525.628 144.233 528.628 149.7C531.628 155.167 533.895 161.1 535.428 167.5C537.028 173.9 537.828 180.633 537.828 187.7ZM510.328 187.7C510.328 179.767 509.261 172.667 507.128 166.4C504.995 160.067 501.961 154.7 498.028 150.3C494.095 145.9 489.295 142.533 483.628 140.2C478.028 137.867 471.695 136.7 464.628 136.7C457.561 136.7 451.195 137.867 445.528 140.2C439.928 142.533 435.128 145.9 431.128 150.3C427.195 154.7 424.161 160.067 422.028 166.4C419.895 172.667 418.828 179.767 418.828 187.7C418.828 195.633 419.895 202.767 422.028 209.1C424.161 215.367 427.195 220.7 431.128 225.1C435.128 229.433 439.928 232.767 445.528 235.1C451.195 237.433 457.561 238.6 464.628 238.6C471.695 238.6 478.028 237.433 483.628 235.1C489.295 232.767 494.095 229.433 498.028 225.1C501.961 220.7 504.995 215.367 507.128 209.1C509.261 202.767 510.328 195.633 510.328 187.7ZM615.552 239C620.552 239 624.752 238.4 628.152 237.2C631.552 236 634.252 234.4 636.252 232.4C638.318 230.4 639.785 228.067 640.652 225.4C641.585 222.733 642.052 219.9 642.052 216.9C642.052 213.767 641.552 210.967 640.552 208.5C639.552 205.967 637.985 203.833 635.852 202.1C633.718 200.3 630.952 198.933 627.552 198C624.218 197.067 620.185 196.6 615.452 196.6H588.352V239H615.552ZM588.352 136.2V178H609.752C618.952 178 625.885 176.333 630.552 173C635.285 169.667 637.652 164.367 637.652 157.1C637.652 149.567 635.518 144.2 631.252 141C626.985 137.8 620.318 136.2 611.252 136.2H588.352ZM611.252 115.4C620.718 115.4 628.818 116.3 635.552 118.1C642.285 119.9 647.785 122.467 652.052 125.8C656.385 129.133 659.552 133.167 661.552 137.9C663.552 142.633 664.552 147.967 664.552 153.9C664.552 157.3 664.052 160.567 663.052 163.7C662.052 166.767 660.485 169.667 658.352 172.4C656.285 175.067 653.618 177.5 650.352 179.7C647.152 181.9 643.318 183.767 638.852 185.3C658.718 189.767 668.652 200.5 668.652 217.5C668.652 223.633 667.485 229.3 665.152 234.5C662.818 239.7 659.418 244.2 654.952 248C650.485 251.733 644.985 254.667 638.452 256.8C631.918 258.933 624.452 260 616.052 260H561.452V115.4H611.252Z" fill="#325994"/>
<line x1="590" y1="328" x2="718" y2="328" stroke="#325994" stroke-width="10"/>
<line x1="516" y1="38" x2="718" y2="38" stroke="#325994" stroke-width="10"/>
<line x1="52" y1="328" x2="180" y2="328" stroke="#325994" stroke-width="10"/>
<line x1="52" y1="38" x2="250" y2="38" stroke="#325994" stroke-width="10"/>
<line x1="57" y1="38" x2="57" y2="326" stroke="#325994" stroke-width="10"/>
<line x1="713" y1="38" x2="713" y2="326" stroke="#325994" stroke-width="10"/>
<path d="M234.828 310.8H220.876V350H212.268V310.8H198.316V303.728H234.828V310.8ZM267.667 325.744C269.289 325.744 270.697 325.541 271.891 325.136C273.107 324.731 274.099 324.176 274.867 323.472C275.657 322.747 276.243 321.893 276.627 320.912C277.011 319.931 277.203 318.853 277.203 317.68C277.203 315.333 276.425 313.531 274.867 312.272C273.331 311.013 270.974 310.384 267.795 310.384H262.291V325.744H267.667ZM289.811 350H282.035C280.563 350 279.497 349.424 278.835 348.272L269.107 333.456C268.745 332.901 268.339 332.507 267.891 332.272C267.465 332.037 266.825 331.92 265.971 331.92H262.291V350H253.683V303.728H267.795C270.931 303.728 273.619 304.059 275.859 304.72C278.121 305.36 279.966 306.267 281.395 307.44C282.846 308.613 283.913 310.021 284.595 311.664C285.278 313.285 285.619 315.077 285.619 317.04C285.619 318.597 285.385 320.069 284.915 321.456C284.467 322.843 283.806 324.101 282.931 325.232C282.078 326.363 281.011 327.355 279.731 328.208C278.473 329.061 277.033 329.733 275.411 330.224C275.966 330.544 276.478 330.928 276.947 331.376C277.417 331.803 277.843 332.315 278.227 332.912L289.811 350ZM332.056 332.528L326.424 317.136C326.147 316.453 325.859 315.643 325.56 314.704C325.262 313.765 324.963 312.752 324.664 311.664C324.387 312.752 324.099 313.776 323.8 314.736C323.502 315.675 323.214 316.496 322.936 317.2L317.336 332.528H332.056ZM347.256 350H340.6C339.854 350 339.246 349.819 338.776 349.456C338.307 349.072 337.955 348.603 337.72 348.048L334.264 338.608H315.096L311.64 348.048C311.47 348.539 311.139 348.987 310.648 349.392C310.158 349.797 309.55 350 308.824 350H302.104L320.312 303.728H329.08L347.256 350ZM395.247 339.088C395.716 339.088 396.132 339.269 396.495 339.632L399.887 343.312C398.009 345.637 395.695 347.419 392.943 348.656C390.212 349.893 386.927 350.512 383.087 350.512C379.652 350.512 376.559 349.925 373.807 348.752C371.076 347.579 368.74 345.947 366.799 343.856C364.857 341.765 363.364 339.269 362.319 336.368C361.295 333.467 360.783 330.299 360.783 326.864C360.783 323.387 361.337 320.208 362.447 317.328C363.556 314.427 365.113 311.931 367.119 309.84C369.145 307.749 371.556 306.128 374.351 304.976C377.145 303.803 380.239 303.216 383.631 303.216C387.001 303.216 389.988 303.771 392.591 304.88C395.215 305.989 397.444 307.44 399.279 309.232L396.399 313.232C396.228 313.488 396.004 313.712 395.727 313.904C395.471 314.096 395.108 314.192 394.639 314.192C394.319 314.192 393.988 314.107 393.647 313.936C393.305 313.744 392.932 313.52 392.527 313.264C392.121 312.987 391.652 312.688 391.119 312.368C390.585 312.048 389.967 311.76 389.263 311.504C388.559 311.227 387.737 311.003 386.799 310.832C385.881 310.64 384.815 310.544 383.599 310.544C381.529 310.544 379.631 310.917 377.903 311.664C376.196 312.389 374.724 313.456 373.487 314.864C372.249 316.251 371.289 317.957 370.607 319.984C369.924 321.989 369.583 324.283 369.583 326.864C369.583 329.467 369.945 331.781 370.671 333.808C371.417 335.835 372.42 337.541 373.679 338.928C374.937 340.315 376.42 341.381 378.127 342.128C379.833 342.853 381.668 343.216 383.631 343.216C384.804 343.216 385.86 343.152 386.799 343.024C387.759 342.896 388.633 342.693 389.423 342.416C390.233 342.139 390.991 341.787 391.695 341.36C392.42 340.912 393.135 340.368 393.839 339.728C394.052 339.536 394.276 339.387 394.511 339.28C394.745 339.152 394.991 339.088 395.247 339.088ZM427.191 323.12H429.207C430.018 323.12 430.69 323.013 431.223 322.8C431.757 322.565 432.215 322.203 432.599 321.712L445.367 305.552C445.901 304.869 446.455 304.4 447.031 304.144C447.629 303.867 448.375 303.728 449.271 303.728H456.695L441.111 322.96C440.194 324.133 439.245 324.965 438.263 325.456C438.967 325.712 439.597 326.075 440.151 326.544C440.727 326.992 441.271 327.589 441.783 328.336L457.847 350H450.263C449.239 350 448.471 349.861 447.959 349.584C447.469 349.285 447.053 348.859 446.711 348.304L433.623 331.216C433.218 330.64 432.749 330.235 432.215 330C431.682 329.765 430.914 329.648 429.911 329.648H427.191V350H418.583V303.728H427.191V323.12ZM483.898 310.576V323.408H500.09V330.032H483.898V343.12H504.442V350H475.258V303.728H504.442V310.576H483.898ZM538.855 325.744C540.476 325.744 541.884 325.541 543.079 325.136C544.295 324.731 545.287 324.176 546.055 323.472C546.844 322.747 547.431 321.893 547.815 320.912C548.199 319.931 548.391 318.853 548.391 317.68C548.391 315.333 547.612 313.531 546.055 312.272C544.519 311.013 542.161 310.384 538.983 310.384H533.479V325.744H538.855ZM560.999 350H553.223C551.751 350 550.684 349.424 550.023 348.272L540.295 333.456C539.932 332.901 539.527 332.507 539.079 332.272C538.652 332.037 538.012 331.92 537.159 331.92H533.479V350H524.871V303.728H538.983C542.119 303.728 544.807 304.059 547.047 304.72C549.308 305.36 551.153 306.267 552.583 307.44C554.033 308.613 555.1 310.021 555.783 311.664C556.465 313.285 556.807 315.077 556.807 317.04C556.807 318.597 556.572 320.069 556.103 321.456C555.655 322.843 554.993 324.101 554.119 325.232C553.265 326.363 552.199 327.355 550.919 328.208C549.66 329.061 548.22 329.733 546.599 330.224C547.153 330.544 547.665 330.928 548.135 331.376C548.604 331.803 549.031 332.315 549.415 332.912L560.999 350Z" fill="#209ED4"/>
<path d="M326.447 16.728V63H318.863V33.112C318.863 31.9173 318.927 30.6267 319.055 29.24L305.071 55.512C304.409 56.7707 303.396 57.4 302.031 57.4H300.815C299.449 57.4 298.436 56.7707 297.775 55.512L283.631 29.144C283.695 29.848 283.748 30.5413 283.791 31.224C283.833 31.9067 283.855 32.536 283.855 33.112V63H276.271V16.728H282.767C283.151 16.728 283.481 16.7387 283.759 16.76C284.036 16.7813 284.281 16.8347 284.495 16.92C284.729 17.0053 284.932 17.144 285.103 17.336C285.295 17.528 285.476 17.784 285.647 18.104L299.503 43.8C299.865 44.4827 300.196 45.1867 300.495 45.912C300.815 46.6373 301.124 47.384 301.423 48.152C301.721 47.3627 302.031 46.6053 302.351 45.88C302.671 45.1333 303.012 44.4187 303.375 43.736L317.039 18.104C317.209 17.784 317.391 17.528 317.583 17.336C317.775 17.144 317.977 17.0053 318.191 16.92C318.425 16.8347 318.681 16.7813 318.959 16.76C319.236 16.7387 319.567 16.728 319.951 16.728H326.447ZM381.347 52.088C381.816 52.088 382.232 52.2693 382.595 52.632L385.987 56.312C384.109 58.6373 381.795 60.4187 379.043 61.656C376.312 62.8933 373.027 63.512 369.187 63.512C365.752 63.512 362.659 62.9253 359.907 61.752C357.176 60.5787 354.84 58.9467 352.899 56.856C350.957 54.7653 349.464 52.2693 348.419 49.368C347.395 46.4667 346.883 43.2987 346.883 39.864C346.883 36.3867 347.437 33.208 348.547 30.328C349.656 27.4267 351.213 24.9307 353.219 22.84C355.245 20.7493 357.656 19.128 360.451 17.976C363.245 16.8027 366.339 16.216 369.731 16.216C373.101 16.216 376.088 16.7707 378.691 17.88C381.315 18.9893 383.544 20.44 385.379 22.232L382.499 26.232C382.328 26.488 382.104 26.712 381.827 26.904C381.571 27.096 381.208 27.192 380.739 27.192C380.419 27.192 380.088 27.1067 379.747 26.936C379.405 26.744 379.032 26.52 378.627 26.264C378.221 25.9867 377.752 25.688 377.219 25.368C376.685 25.048 376.067 24.76 375.363 24.504C374.659 24.2267 373.837 24.0027 372.899 23.832C371.981 23.64 370.915 23.544 369.699 23.544C367.629 23.544 365.731 23.9173 364.003 24.664C362.296 25.3893 360.824 26.456 359.587 27.864C358.349 29.2507 357.389 30.9573 356.707 32.984C356.024 34.9893 355.683 37.2827 355.683 39.864C355.683 42.4667 356.045 44.7813 356.771 46.808C357.517 48.8347 358.52 50.5413 359.779 51.928C361.037 53.3147 362.52 54.3813 364.227 55.128C365.933 55.8533 367.768 56.216 369.731 56.216C370.904 56.216 371.96 56.152 372.899 56.024C373.859 55.896 374.733 55.6933 375.523 55.416C376.333 55.1387 377.091 54.7867 377.795 54.36C378.52 53.912 379.235 53.368 379.939 52.728C380.152 52.536 380.376 52.3867 380.611 52.28C380.845 52.152 381.091 52.088 381.347 52.088ZM419.723 39.992C421.302 39.992 422.678 39.8 423.851 39.416C425.025 39.0107 425.995 38.4453 426.763 37.72C427.553 36.9733 428.139 36.0773 428.523 35.032C428.907 33.9653 429.099 32.7813 429.099 31.48C429.099 30.2427 428.907 29.1227 428.523 28.12C428.139 27.1173 427.563 26.264 426.795 25.56C426.027 24.856 425.057 24.3227 423.883 23.96C422.71 23.576 421.323 23.384 419.723 23.384H413.291V39.992H419.723ZM419.723 16.728C422.817 16.728 425.494 17.0907 427.755 17.816C430.017 18.5413 431.883 19.5547 433.355 20.856C434.827 22.1573 435.915 23.7147 436.619 25.528C437.345 27.3413 437.707 29.3253 437.707 31.48C437.707 33.72 437.334 35.7787 436.587 37.656C435.841 39.512 434.721 41.112 433.227 42.456C431.734 43.8 429.857 44.8453 427.595 45.592C425.355 46.3387 422.731 46.712 419.723 46.712H413.291V63H404.683V16.728H419.723ZM481.748 25.144C481.492 25.592 481.215 25.9227 480.916 26.136C480.639 26.328 480.287 26.424 479.86 26.424C479.412 26.424 478.922 26.264 478.388 25.944C477.876 25.6027 477.258 25.2293 476.532 24.824C475.807 24.4187 474.954 24.056 473.972 23.736C473.012 23.3947 471.871 23.224 470.548 23.224C469.354 23.224 468.308 23.3733 467.412 23.672C466.516 23.9493 465.759 24.344 465.14 24.856C464.543 25.368 464.095 25.9867 463.796 26.712C463.498 27.416 463.348 28.1947 463.348 29.048C463.348 30.136 463.647 31.0427 464.244 31.768C464.863 32.4933 465.674 33.112 466.676 33.624C467.679 34.136 468.82 34.5947 470.1 35C471.38 35.4053 472.692 35.8427 474.036 36.312C475.38 36.76 476.692 37.2933 477.972 37.912C479.252 38.5093 480.394 39.2773 481.396 40.216C482.399 41.1333 483.199 42.264 483.796 43.608C484.415 44.952 484.724 46.584 484.724 48.504C484.724 50.5947 484.362 52.5573 483.636 54.392C482.932 56.2053 481.887 57.7947 480.5 59.16C479.135 60.504 477.46 61.5707 475.476 62.36C473.492 63.128 471.22 63.512 468.66 63.512C467.188 63.512 465.738 63.3627 464.308 63.064C462.879 62.7867 461.503 62.3813 460.18 61.848C458.879 61.3147 457.652 60.6747 456.5 59.928C455.348 59.1813 454.324 58.3493 453.428 57.432L455.956 53.304C456.17 53.0053 456.447 52.76 456.788 52.568C457.13 52.3547 457.492 52.248 457.876 52.248C458.41 52.248 458.986 52.472 459.604 52.92C460.223 53.3467 460.959 53.8267 461.812 54.36C462.666 54.8933 463.658 55.384 464.788 55.832C465.94 56.2587 467.316 56.472 468.916 56.472C471.37 56.472 473.268 55.896 474.612 54.744C475.956 53.5707 476.628 51.896 476.628 49.72C476.628 48.504 476.319 47.512 475.7 46.744C475.103 45.976 474.303 45.336 473.3 44.824C472.298 44.2907 471.156 43.8427 469.876 43.48C468.596 43.1173 467.295 42.7227 465.972 42.296C464.65 41.8693 463.348 41.3573 462.068 40.76C460.788 40.1627 459.647 39.384 458.644 38.424C457.642 37.464 456.831 36.2693 456.212 34.84C455.615 33.3893 455.316 31.608 455.316 29.496C455.316 27.8107 455.647 26.168 456.308 24.568C456.991 22.968 457.972 21.5493 459.252 20.312C460.532 19.0747 462.111 18.0827 463.988 17.336C465.866 16.5893 468.02 16.216 470.452 16.216C473.183 16.216 475.7 16.6427 478.004 17.496C480.308 18.3493 482.271 19.544 483.892 21.08L481.748 25.144Z" fill="#209ED4"/>
</svg>
